<svg xmlns="http://www.w3.org/2000/svg" viewBox="0 0 1404.5 1111.3" role="img" aria-label="AW">
<g transform="translate(-184.490880,1126.978338) scale(0.100000,-0.100000)"
fill="currentColor" stroke="currentColor" stroke-width="160" stroke-linejoin="round" stroke-linecap="round">
<path d="M9165 11254 c-62 -32 -152 -139 -204 -243 -33 -66 -113 -206 -141
-246 -15 -22 -48 -78 -74 -125 -26 -47 -69 -121 -96 -165 -28 -44 -50 -84 -50
-88 0 -5 -11 -23 -24 -40 -13 -18 -30 -45 -38 -62 -25 -48 -71 -132 -141 -255
-36 -63 -89 -158 -118 -210 -58 -107 -151 -267 -184 -320 -24 -38 -66 -112
-101 -175 -12 -22 -48 -89 -81 -150 -33 -60 -78 -142 -100 -180 -23 -39 -48
-86 -57 -105 -9 -19 -23 -46 -31 -60 -8 -14 -60 -110 -116 -215 -56 -104 -110
-201 -119 -215 -10 -14 -50 -88 -90 -165 -40 -77 -76 -145 -81 -150 -4 -6 -30
-53 -57 -105 -85 -163 -128 -243 -165 -305 -19 -33 -61 -109 -93 -170 -31 -60
-70 -135 -86 -165 -16 -30 -59 -113 -96 -185 -108 -208 -221 -423 -272 -515
-26 -47 -79 -150 -119 -230 -40 -80 -78 -151 -83 -158 -6 -7 -43 -76 -83 -155
-74 -146 -141 -274 -190 -362 -16 -27 -51 -93 -78 -145 -27 -52 -70 -133 -95
-180 -24 -47 -58 -111 -73 -143 -28 -56 -103 -147 -120 -147 -5 0 -51 -18
-101 -41 -51 -22 -124 -54 -163 -70 -78 -33 -91 -39 -355 -167 -102 -49 -223
-106 -270 -127 -47 -20 -188 -88 -315 -150 -221 -108 -366 -178 -635 -307
-243 -117 -721 -360 -758 -387 -15 -10 -37 -22 -50 -26 -13 -4 -76 -33 -141
-66 -65 -32 -121 -59 -124 -59 -4 0 -75 -37 -159 -83 -187 -101 -528 -270
-583 -287 -141 -46 -233 -166 -205 -270 40 -148 157 -220 357 -220 53 0 399
169 564 275 20 13 80 47 135 76 54 29 124 66 154 82 30 17 73 39 95 49 42 20
44 21 140 76 33 19 80 46 105 59 62 33 99 53 143 81 57 34 106 63 167 95 144
77 296 156 405 212 66 34 167 87 225 117 58 31 155 81 215 113 61 31 126 65
145 75 78 41 430 210 507 245 46 20 102 47 125 60 57 32 94 2 54 -44 -13 -15
-34 -56 -136 -261 -23 -47 -59 -116 -80 -155 -21 -38 -63 -119 -94 -180 -32
-60 -61 -114 -65 -120 -5 -5 -30 -50 -55 -100 -26 -49 -71 -130 -100 -180 -73
-128 -80 -141 -283 -535 -50 -96 -107 -202 -126 -235 -77 -130 -163 -287 -237
-430 -42 -82 -96 -184 -120 -225 -99 -173 -130 -228 -130 -234 0 -3 -21 -43
-46 -88 -165 -293 -168 -316 -62 -415 97 -88 184 -116 302 -94 118 22 148 60
262 331 67 161 217 471 243 504 5 6 30 54 56 106 44 90 52 105 74 148 5 9 23
46 39 82 16 36 39 83 50 105 11 22 43 87 71 145 28 58 58 116 65 130 8 14 31
59 52 100 20 41 44 91 54 110 9 19 37 71 62 115 25 44 49 91 53 105 4 14 15
36 25 50 9 14 40 72 68 130 29 58 59 116 67 130 8 14 47 93 88 175 41 83 100
200 133 260 32 61 74 140 94 176 50 95 93 175 128 239 17 30 44 80 59 110 203
389 214 405 283 425 14 4 45 17 70 30 83 42 199 95 207 95 4 0 35 13 68 29
120 58 331 151 344 151 14 0 136 51 226 95 86 42 212 95 225 95 7 0 33 11 59
24 83 43 284 126 486 200 39 14 78 31 88 36 10 6 46 21 80 34 34 13 100 40
147 61 47 20 113 46 148 56 35 10 78 27 96 39 43 26 92 26 106 0 13 -24 4
-266 -12 -320 -12 -41 -33 -419 -47 -840 -6 -162 -14 -349 -19 -415 -5 -66 -9
-138 -10 -160 -11 -474 -22 -1330 -17 -1390 4 -44 6 -237 6 -430 -1 -192 3
-456 9 -585 5 -129 12 -316 16 -415 3 -99 10 -200 15 -224 6 -24 12 -170 15
-324 6 -311 12 -332 127 -433 126 -110 217 -134 298 -78 99 68 101 128 16 444
-36 136 -77 584 -77 844 0 55 -7 124 -15 157 -20 78 -24 1371 -5 1664 7 105
16 291 20 415 10 309 36 776 44 788 3 5 10 108 16 228 6 121 16 244 21 274 11
56 20 164 37 455 5 88 14 178 20 200 6 22 18 103 27 180 24 210 24 210 93 235
31 12 61 25 67 30 5 4 35 17 65 28 30 11 91 33 135 50 44 16 98 38 120 50 22
12 47 22 57 22 9 0 41 9 70 19 29 11 80 27 113 36 33 9 77 26 98 36 21 11 63
28 95 39 117 39 178 61 218 80 22 11 46 20 53 20 7 0 44 14 84 31 40 17 88 36
107 41 19 5 64 21 99 35 127 50 145 0 77 -210 -13 -40 -26 -96 -30 -126 -4
-30 -18 -79 -30 -110 -13 -31 -27 -82 -31 -115 -4 -32 -15 -78 -25 -102 -10
-23 -23 -67 -29 -96 -5 -29 -19 -78 -30 -108 -11 -30 -25 -84 -30 -120 -6 -36
-24 -108 -41 -160 -16 -51 -30 -105 -30 -119 0 -14 -10 -46 -21 -71 -11 -24
-24 -69 -28 -100 -5 -30 -22 -102 -39 -160 -16 -58 -33 -123 -37 -145 -4 -21
-14 -53 -22 -69 -8 -16 -19 -61 -25 -100 -5 -39 -18 -91 -29 -115 -11 -24 -22
-63 -25 -85 -4 -23 -19 -84 -35 -136 -16 -52 -33 -128 -39 -168 -5 -40 -19
-90 -29 -110 -11 -21 -26 -88 -35 -148 -8 -61 -22 -129 -30 -150 -9 -21 -22
-85 -30 -142 -9 -56 -21 -112 -27 -124 -6 -11 -15 -48 -20 -82 -20 -146 -30
-203 -44 -241 -8 -22 -19 -82 -26 -134 -6 -52 -17 -112 -25 -134 -8 -22 -14
-59 -14 -83 0 -23 -4 -54 -10 -68 -5 -14 -12 -64 -15 -111 -3 -48 -12 -99 -20
-114 -18 -35 -35 -170 -35 -277 0 -168 107 -299 280 -344 25 -6 61 -17 81 -25
95 -36 314 78 373 195 131 257 202 401 241 485 26 55 62 132 81 172 19 39 34
74 34 77 0 7 136 288 322 666 93 190 197 401 230 470 33 69 77 159 97 200 36
74 159 302 262 485 15 28 41 75 57 105 98 187 130 245 183 332 32 53 59 99 59
102 0 3 24 43 54 88 29 46 56 93 60 105 9 27 84 96 96 88 13 -8 13 -61 0 -103
-5 -18 -14 -135 -20 -260 -6 -125 -18 -272 -26 -326 -7 -55 -14 -131 -15 -170
0 -39 -4 -107 -10 -151 -15 -121 -27 -287 -39 -520 -5 -115 -14 -230 -20 -255
-5 -25 -9 -101 -10 -170 0 -69 -4 -151 -10 -184 -8 -53 -14 -752 -8 -1006 3
-96 6 -111 36 -170 17 -36 32 -69 32 -75 0 -58 347 -219 436 -202 159 29 287
146 345 316 11 30 23 59 28 65 5 6 20 38 32 71 12 33 28 69 35 80 7 11 19 43
27 71 8 28 24 68 35 90 10 21 22 53 26 69 4 17 18 55 30 85 57 136 70 170 91
240 21 70 39 118 87 230 10 25 27 74 38 110 24 84 73 218 90 250 7 14 21 50
31 80 10 30 31 91 48 135 30 82 84 230 126 345 13 36 31 85 40 110 21 59 243
735 331 1009 51 159 73 215 87 220 19 7 31 36 87 201 83 248 143 415 155 434
7 12 16 37 20 56 4 19 19 64 35 100 55 129 73 176 89 235 10 33 23 70 29 82
14 26 64 167 91 258 9 33 25 74 33 90 15 29 66 172 93 265 8 25 32 97 55 160
23 63 50 144 60 179 11 35 24 69 30 76 6 7 21 44 34 81 13 38 38 107 56 154
17 47 44 123 59 170 15 47 33 94 39 105 7 11 21 45 31 75 24 69 68 177 85 210
8 14 21 48 29 75 14 44 63 182 111 315 15 41 36 93 103 255 14 33 38 87 54
120 16 33 50 119 75 190 83 232 111 309 139 375 33 78 89 224 116 299 11 30
26 66 35 79 9 13 24 47 34 75 10 29 37 96 59 150 52 122 54 172 11 256 -110
218 -397 215 -440 -6 -6 -32 -20 -80 -31 -108 -11 -27 -23 -70 -26 -95 -3 -25
-15 -63 -26 -85 -20 -40 -81 -208 -183 -508 -30 -87 -62 -173 -71 -190 -9 -17
-22 -58 -29 -90 -8 -31 -22 -74 -33 -95 -10 -20 -21 -50 -25 -67 -9 -37 -63
-180 -83 -219 -8 -16 -24 -61 -35 -100 -11 -39 -24 -76 -29 -82 -10 -12 -56
-142 -89 -250 -10 -34 -24 -72 -30 -85 -7 -12 -23 -55 -35 -93 -39 -120 -73
-214 -91 -247 -9 -18 -24 -60 -34 -93 -10 -34 -33 -99 -50 -146 -18 -47 -45
-121 -60 -165 -16 -44 -45 -123 -65 -175 -20 -52 -44 -120 -54 -150 -10 -30
-24 -66 -31 -80 -8 -14 -27 -61 -43 -105 -16 -44 -42 -116 -58 -160 -17 -44
-38 -105 -48 -135 -10 -30 -26 -71 -36 -90 -10 -19 -26 -60 -36 -90 -9 -30
-34 -93 -54 -140 -20 -47 -46 -116 -57 -155 -11 -38 -27 -83 -35 -98 -13 -27
-24 -57 -88 -242 -13 -38 -38 -108 -55 -155 -18 -47 -41 -112 -52 -145 -11
-33 -30 -85 -44 -115 -13 -30 -43 -113 -68 -185 -42 -126 -63 -179 -112 -295
-41 -98 -75 -184 -89 -226 -7 -23 -22 -59 -33 -80 -11 -22 -27 -68 -36 -103
-9 -36 -20 -69 -25 -75 -12 -14 -91 -222 -91 -239 0 -6 -14 -39 -30 -72 -16
-33 -30 -65 -30 -70 0 -13 -63 -174 -94 -240 -13 -27 -43 -104 -65 -170 -23
-65 -46 -124 -51 -130 -6 -7 -20 -43 -33 -81 -14 -38 -34 -94 -47 -124 -25
-60 -68 -164 -104 -250 -22 -50 -33 -78 -86 -210 -57 -141 -74 -181 -102 -240
-17 -36 -35 -75 -41 -87 -37 -81 -82 -75 -73 9 3 29 10 184 15 343 12 332 27
568 40 640 6 28 10 96 10 152 1 56 8 135 16 177 7 42 17 133 20 203 4 71 15
160 25 198 11 43 20 125 24 210 3 77 12 176 21 220 8 44 20 118 25 165 6 47
18 146 26 220 9 74 25 177 35 228 10 52 21 130 25 175 3 45 12 107 20 137 18
74 34 239 34 359 0 141 -52 207 -220 278 -195 83 -345 36 -440 -138 -14 -25
-47 -79 -74 -120 -112 -170 -176 -273 -176 -283 0 -5 -8 -20 -19 -34 -26 -37
-56 -91 -114 -202 -27 -52 -61 -115 -76 -140 -14 -25 -34 -58 -43 -75 -56
-101 -135 -239 -169 -295 -22 -36 -46 -78 -53 -95 -8 -16 -23 -41 -33 -55 -22
-29 -55 -83 -93 -155 -48 -88 -121 -227 -170 -320 -52 -100 -80 -151 -163
-305 -32 -58 -111 -213 -177 -345 -66 -132 -142 -281 -169 -332 -26 -51 -51
-100 -55 -110 -3 -10 -24 -49 -46 -88 -21 -38 -76 -143 -121 -233 -88 -175
-91 -179 -109 -157 -15 19 -8 85 19 170 11 33 24 102 31 154 6 51 17 108 25
127 7 18 19 77 25 131 6 54 23 132 36 173 14 41 29 109 34 152 5 42 16 90 24
107 9 16 25 64 37 106 11 42 27 92 35 110 8 19 18 65 24 102 5 37 23 110 40
162 16 52 30 113 30 135 1 23 8 59 16 81 9 22 24 69 35 105 10 36 35 121 55
190 20 69 47 163 59 210 22 86 46 164 90 300 13 41 29 98 35 125 5 28 21 79
34 115 31 83 62 178 86 260 11 36 40 126 65 200 25 74 50 157 56 184 9 49 49
160 95 265 116 263 -288 444 -622 278 -60 -30 -154 -71 -209 -92 -55 -20 -125
-48 -155 -60 -76 -31 -219 -82 -255 -91 -16 -4 -48 -16 -69 -27 -22 -10 -67
-27 -100 -37 -81 -25 -215 -73 -245 -89 -13 -7 -51 -21 -85 -31 -80 -24 -213
-72 -253 -93 -18 -10 -37 -17 -43 -17 -7 0 -40 -11 -75 -25 -103 -42 -122 -18
-100 127 8 51 17 134 21 183 3 50 12 107 20 127 7 21 19 102 25 180 5 78 19
179 29 224 11 46 24 136 30 201 6 65 18 141 25 168 14 50 27 144 45 316 4 48
15 100 24 117 9 17 16 53 16 79 0 26 6 75 14 108 8 33 17 83 21 110 3 28 13
72 21 99 8 27 14 69 14 93 0 24 11 94 24 156 14 62 32 157 41 212 9 55 25 134
36 176 10 42 19 90 19 106 0 16 7 53 16 83 17 61 36 144 54 235 7 33 20 96 30
140 11 44 22 111 25 149 3 38 12 95 20 125 7 31 19 85 25 121 33 195 50 281
55 291 4 6 13 57 21 115 7 57 23 136 35 175 60 197 -19 371 -198 434 -27 9
-71 28 -99 42 -88 42 -271 57 -329 27z m-76 -1086 c4 -13 5 -50 0 -83 -4 -33
-8 -88 -8 -123 -1 -34 -8 -79 -16 -99 -9 -21 -18 -69 -21 -107 -3 -38 -7 -72
-9 -76 -2 -3 -8 -44 -15 -90 -6 -47 -19 -130 -30 -185 -10 -55 -22 -143 -25
-195 -4 -54 -14 -108 -23 -125 -8 -16 -19 -68 -23 -115 -16 -174 -32 -296 -46
-345 -8 -27 -18 -104 -23 -170 -5 -66 -14 -133 -20 -150 -7 -16 -16 -68 -20
-115 -5 -47 -13 -131 -19 -187 -5 -55 -17 -139 -25 -185 -8 -45 -18 -123 -21
-173 -4 -49 -13 -128 -21 -174 -8 -46 -14 -107 -14 -135 0 -29 -9 -77 -20
-109 -14 -40 -20 -82 -20 -143 0 -48 -4 -115 -9 -148 -11 -68 -35 -262 -51
-406 -22 -201 -19 -188 -58 -220 -20 -16 -63 -41 -97 -54 -33 -13 -98 -41
-145 -61 -47 -20 -117 -47 -155 -60 -39 -12 -79 -27 -90 -34 -11 -6 -50 -22
-87 -36 -148 -55 -203 -77 -213 -85 -6 -5 -38 -18 -71 -29 -70 -23 -173 -64
-229 -91 -43 -21 -146 -63 -210 -86 -22 -8 -58 -24 -80 -34 -61 -30 -218 -92
-371 -148 -44 -16 -90 -35 -103 -41 -12 -7 -45 -19 -74 -28 -28 -8 -60 -21
-71 -28 -98 -62 -119 -20 -53 102 30 54 58 110 62 123 4 14 13 32 20 40 7 8
39 65 71 125 32 61 70 133 85 160 15 28 49 93 76 145 28 52 70 131 93 175 24
44 96 184 161 310 64 127 137 266 161 310 25 44 48 91 53 105 4 14 14 35 22
48 7 13 24 42 37 65 13 23 41 74 63 112 22 39 75 138 118 220 42 83 83 157 90
165 7 8 22 35 33 60 12 25 29 59 38 75 57 96 90 154 159 280 43 77 87 158 98
180 11 22 26 47 33 55 6 8 37 65 68 125 56 108 68 130 138 250 19 33 54 94 78
135 52 92 170 288 261 435 38 61 94 155 124 210 78 139 183 313 290 478 27 42
73 123 97 170 21 42 44 48 57 15z"/>
</g>
</svg>
